<mxfile host="app.diagrams.net" modified="2022-04-08T11:09:55.023Z" agent="5.0 (Windows NT 10.0; Win64; x64) AppleWebKit/537.36 (KHTML, like Gecko) Chrome/100.0.4896.60 Safari/537.36 Edg/100.0.1185.29" etag="ySda6pKVsjR5lI4yeyXR" version="17.4.0" type="github">
  <diagram id="6OVNL7MLLj3abh7c32OE" name="Page-1">
    <mxGraphModel dx="1165" dy="644" grid="1" gridSize="10" guides="1" tooltips="1" connect="1" arrows="1" fold="1" page="1" pageScale="1" pageWidth="827" pageHeight="1169" math="0" shadow="0">
      <root>
        <mxCell id="0" />
        <mxCell id="1" parent="0" />
        <mxCell id="kMjIAKgMOnP7UoTgWlDa-19" style="edgeStyle=orthogonalEdgeStyle;rounded=0;orthogonalLoop=1;jettySize=auto;html=1;exitX=0.5;exitY=1;exitDx=0;exitDy=0;endArrow=classic;endFill=1;" edge="1" parent="1" source="kMjIAKgMOnP7UoTgWlDa-1">
          <mxGeometry relative="1" as="geometry">
            <mxPoint x="414.16666666666674" y="160" as="targetPoint" />
          </mxGeometry>
        </mxCell>
        <mxCell id="kMjIAKgMOnP7UoTgWlDa-1" value="论坛" style="rounded=0;whiteSpace=wrap;html=1;" vertex="1" parent="1">
          <mxGeometry x="354" y="50" width="120" height="60" as="geometry" />
        </mxCell>
        <mxCell id="kMjIAKgMOnP7UoTgWlDa-18" style="edgeStyle=orthogonalEdgeStyle;rounded=0;orthogonalLoop=1;jettySize=auto;html=1;exitX=0.5;exitY=0;exitDx=0;exitDy=0;endArrow=none;endFill=0;entryX=0.5;entryY=0;entryDx=0;entryDy=0;" edge="1" parent="1">
          <mxGeometry relative="1" as="geometry">
            <mxPoint x="579" y="190" as="targetPoint" />
            <mxPoint x="274" y="190" as="sourcePoint" />
            <Array as="points">
              <mxPoint x="274" y="160" />
              <mxPoint x="569" y="160" />
            </Array>
          </mxGeometry>
        </mxCell>
        <mxCell id="kMjIAKgMOnP7UoTgWlDa-24" style="edgeStyle=orthogonalEdgeStyle;rounded=0;orthogonalLoop=1;jettySize=auto;html=1;exitX=0.5;exitY=1;exitDx=0;exitDy=0;endArrow=classic;endFill=1;" edge="1" parent="1" source="kMjIAKgMOnP7UoTgWlDa-2">
          <mxGeometry relative="1" as="geometry">
            <mxPoint x="270" y="290" as="targetPoint" />
          </mxGeometry>
        </mxCell>
        <mxCell id="kMjIAKgMOnP7UoTgWlDa-2" value="用户端子系统" style="rounded=0;whiteSpace=wrap;html=1;" vertex="1" parent="1">
          <mxGeometry x="210" y="190" width="120" height="60" as="geometry" />
        </mxCell>
        <mxCell id="kMjIAKgMOnP7UoTgWlDa-31" value="" style="edgeStyle=orthogonalEdgeStyle;rounded=0;orthogonalLoop=1;jettySize=auto;html=1;endArrow=classic;endFill=1;" edge="1" parent="1" source="kMjIAKgMOnP7UoTgWlDa-4" target="kMjIAKgMOnP7UoTgWlDa-11">
          <mxGeometry relative="1" as="geometry" />
        </mxCell>
        <mxCell id="kMjIAKgMOnP7UoTgWlDa-4" value="管理端子系统" style="rounded=0;whiteSpace=wrap;html=1;" vertex="1" parent="1">
          <mxGeometry x="515" y="190" width="120" height="60" as="geometry" />
        </mxCell>
        <mxCell id="kMjIAKgMOnP7UoTgWlDa-20" style="edgeStyle=orthogonalEdgeStyle;rounded=0;orthogonalLoop=1;jettySize=auto;html=1;exitX=0.5;exitY=0;exitDx=0;exitDy=0;entryX=0.5;entryY=0;entryDx=0;entryDy=0;endArrow=none;endFill=0;" edge="1" parent="1" source="kMjIAKgMOnP7UoTgWlDa-5" target="kMjIAKgMOnP7UoTgWlDa-8">
          <mxGeometry relative="1" as="geometry">
            <Array as="points">
              <mxPoint x="111" y="290" />
              <mxPoint x="430" y="290" />
            </Array>
          </mxGeometry>
        </mxCell>
        <mxCell id="kMjIAKgMOnP7UoTgWlDa-5" value="帖&lt;br&gt;子&lt;br&gt;浏&lt;br&gt;览" style="rounded=0;whiteSpace=wrap;html=1;" vertex="1" parent="1">
          <mxGeometry x="85.5" y="340" width="50" height="100" as="geometry" />
        </mxCell>
        <mxCell id="kMjIAKgMOnP7UoTgWlDa-23" style="edgeStyle=orthogonalEdgeStyle;rounded=0;orthogonalLoop=1;jettySize=auto;html=1;exitX=0.5;exitY=0;exitDx=0;exitDy=0;endArrow=none;endFill=0;" edge="1" parent="1" source="kMjIAKgMOnP7UoTgWlDa-7">
          <mxGeometry relative="1" as="geometry">
            <mxPoint x="350.8333333333335" y="290" as="targetPoint" />
          </mxGeometry>
        </mxCell>
        <mxCell id="kMjIAKgMOnP7UoTgWlDa-7" value="搜&lt;br&gt;索&lt;br&gt;帖&lt;br&gt;子" style="rounded=0;whiteSpace=wrap;html=1;" vertex="1" parent="1">
          <mxGeometry x="325.5" y="340" width="50" height="100" as="geometry" />
        </mxCell>
        <mxCell id="kMjIAKgMOnP7UoTgWlDa-8" value="收&lt;br&gt;藏&lt;br&gt;回&lt;br&gt;复" style="rounded=0;whiteSpace=wrap;html=1;" vertex="1" parent="1">
          <mxGeometry x="404.5" y="340" width="50" height="100" as="geometry" />
        </mxCell>
        <mxCell id="kMjIAKgMOnP7UoTgWlDa-22" style="edgeStyle=orthogonalEdgeStyle;rounded=0;orthogonalLoop=1;jettySize=auto;html=1;exitX=0.5;exitY=0;exitDx=0;exitDy=0;endArrow=none;endFill=0;" edge="1" parent="1" source="kMjIAKgMOnP7UoTgWlDa-9">
          <mxGeometry relative="1" as="geometry">
            <mxPoint x="270.8333333333335" y="290" as="targetPoint" />
          </mxGeometry>
        </mxCell>
        <mxCell id="kMjIAKgMOnP7UoTgWlDa-9" value="信&lt;br&gt;息&lt;br&gt;管&lt;br&gt;理" style="rounded=0;whiteSpace=wrap;html=1;" vertex="1" parent="1">
          <mxGeometry x="245.5" y="340" width="50" height="100" as="geometry" />
        </mxCell>
        <mxCell id="kMjIAKgMOnP7UoTgWlDa-26" style="edgeStyle=orthogonalEdgeStyle;rounded=0;orthogonalLoop=1;jettySize=auto;html=1;exitX=0.5;exitY=0;exitDx=0;exitDy=0;entryX=0.5;entryY=0;entryDx=0;entryDy=0;endArrow=none;endFill=0;" edge="1" parent="1" source="kMjIAKgMOnP7UoTgWlDa-10" target="kMjIAKgMOnP7UoTgWlDa-13">
          <mxGeometry relative="1" as="geometry">
            <Array as="points">
              <mxPoint x="505" y="290" />
              <mxPoint x="645" y="290" />
            </Array>
          </mxGeometry>
        </mxCell>
        <mxCell id="kMjIAKgMOnP7UoTgWlDa-10" value="用&lt;br&gt;户&lt;br&gt;管&lt;br&gt;理" style="rounded=0;whiteSpace=wrap;html=1;" vertex="1" parent="1">
          <mxGeometry x="480" y="340" width="50" height="100" as="geometry" />
        </mxCell>
        <mxCell id="kMjIAKgMOnP7UoTgWlDa-30" style="edgeStyle=orthogonalEdgeStyle;rounded=0;orthogonalLoop=1;jettySize=auto;html=1;exitX=0.5;exitY=0;exitDx=0;exitDy=0;endArrow=none;endFill=0;" edge="1" parent="1" source="kMjIAKgMOnP7UoTgWlDa-11">
          <mxGeometry relative="1" as="geometry">
            <mxPoint x="575" y="290" as="targetPoint" />
          </mxGeometry>
        </mxCell>
        <mxCell id="kMjIAKgMOnP7UoTgWlDa-11" value="帖&lt;br&gt;子&lt;br&gt;管&lt;br&gt;理" style="rounded=0;whiteSpace=wrap;html=1;" vertex="1" parent="1">
          <mxGeometry x="550" y="340" width="50" height="100" as="geometry" />
        </mxCell>
        <mxCell id="kMjIAKgMOnP7UoTgWlDa-13" value="话&lt;br&gt;题&lt;br&gt;管&lt;br&gt;理" style="rounded=0;whiteSpace=wrap;html=1;" vertex="1" parent="1">
          <mxGeometry x="620" y="340" width="50" height="100" as="geometry" />
        </mxCell>
        <mxCell id="kMjIAKgMOnP7UoTgWlDa-21" style="edgeStyle=orthogonalEdgeStyle;rounded=0;orthogonalLoop=1;jettySize=auto;html=1;exitX=0.5;exitY=0;exitDx=0;exitDy=0;endArrow=none;endFill=0;" edge="1" parent="1" source="kMjIAKgMOnP7UoTgWlDa-14">
          <mxGeometry relative="1" as="geometry">
            <mxPoint x="190.83333333333337" y="290" as="targetPoint" />
          </mxGeometry>
        </mxCell>
        <mxCell id="kMjIAKgMOnP7UoTgWlDa-14" value="热&lt;br&gt;门&lt;br&gt;推&lt;br&gt;荐" style="rounded=0;whiteSpace=wrap;html=1;" vertex="1" parent="1">
          <mxGeometry x="165.5" y="340" width="50" height="100" as="geometry" />
        </mxCell>
      </root>
    </mxGraphModel>
  </diagram>
</mxfile>
